<svg version="1.1" xmlns="http://www.w3.org/2000/svg" viewBox="0 0 1160 780.2300404151435" width="3480" height="2340.6901212454304" filter="invert(93%) hue-rotate(180deg)">
  <!-- svg-source:excalidraw -->
  
  <defs>
    <style class="style-fonts">
      @font-face {
        font-family: "Virgil";
        src: url("https://excalidraw.com/Virgil.woff2");
      }
      @font-face {
        font-family: "Cascadia";
        src: url("https://excalidraw.com/Cascadia.woff2");
      }
      @font-face {
        font-family: "Assistant";
        src: url("https://excalidraw.com/Assistant-Regular.woff2");
      }
    </style>
    
  </defs>
  <rect x="0" y="0" width="1160" height="780.2300404151435" fill="#ffffff"></rect><g stroke-linecap="round" transform="translate(10 10) rotate(0 350 106)"><path d="M337.41 0.95 C363.77 -1.03, 393.41 0.81, 420.79 2.36 C448.17 3.92, 476.41 6.6, 501.67 10.28 C526.94 13.97, 550.95 19.02, 572.38 24.47 C593.81 29.92, 613.67 36.09, 630.24 42.97 C646.8 49.86, 660.83 58.04, 671.79 65.76 C682.75 73.47, 691.57 81.22, 695.97 89.27 C700.38 97.31, 700.63 105.7, 698.22 114.04 C695.81 122.38, 690.49 131.21, 681.5 139.32 C672.52 147.43, 659.3 155.46, 644.32 162.68 C629.33 169.9, 611.56 176.71, 591.6 182.64 C571.64 188.57, 548.91 194.07, 524.55 198.26 C500.19 202.44, 472.31 205.45, 445.45 207.75 C418.59 210.06, 391.13 211.79, 363.38 212.07 C335.63 212.35, 306.52 211.3, 278.94 209.45 C251.37 207.6, 223.08 204.7, 197.93 200.97 C172.78 197.24, 149.61 192.39, 128.04 187.08 C106.47 181.77, 85.37 175.67, 68.52 169.11 C51.68 162.55, 37.55 155.5, 26.97 147.72 C16.39 139.93, 9.32 130.7, 5.05 122.4 C0.77 114.1, -1.03 106.36, 1.33 97.93 C3.69 89.49, 10.46 80, 19.2 71.8 C27.95 63.59, 39 55.67, 53.81 48.69 C68.62 41.7, 87.73 35.71, 108.06 29.88 C128.39 24.06, 151.5 18.2, 175.79 13.75 C200.08 9.3, 224.27 5.47, 253.81 3.18 C283.35 0.9, 333.87 0.07, 353.01 0.04 C372.14 0, 368.57 1.11, 368.63 3 M221.53 6.26 C244.14 1.78, 276.14 3.11, 303.84 1.92 C331.53 0.74, 359.94 -1.43, 387.72 -0.85 C415.5 -0.27, 444.63 2.5, 470.52 5.41 C496.42 8.31, 520.3 11.91, 543.1 16.6 C565.91 21.29, 588.49 26.98, 607.36 33.54 C626.22 40.11, 642.77 48.56, 656.31 55.98 C669.86 63.39, 681.25 70.15, 688.62 78.04 C696 85.93, 700.09 94.94, 700.54 103.33 C700.98 111.72, 697.89 119.81, 691.29 128.39 C684.69 136.96, 673.55 146.91, 660.94 154.79 C648.34 162.67, 633.59 169.18, 615.67 175.66 C597.74 182.15, 576.35 188.86, 553.42 193.71 C530.49 198.55, 504.14 202.07, 478.09 204.74 C452.03 207.4, 424.37 208.8, 397.09 209.7 C369.81 210.59, 342.08 210.88, 314.41 210.13 C286.75 209.38, 257.45 208.03, 231.11 205.18 C204.77 202.33, 179.39 197.76, 156.37 193.04 C133.34 188.32, 111.96 182.84, 92.96 176.87 C73.96 170.9, 55.97 164.71, 42.35 157.23 C28.72 149.75, 18.5 140.41, 11.22 131.97 C3.93 123.54, -0.95 114.91, -1.36 106.62 C-1.77 98.33, 2.19 90.54, 8.75 82.24 C15.31 73.93, 25.29 64.33, 38 56.8 C50.71 49.28, 66.85 43.38, 85.01 37.08 C103.16 30.78, 124.36 23.75, 146.92 18.98 C169.49 14.21, 207.88 9.89, 220.4 8.45 C232.93 7.01, 219.7 8.79, 222.08 10.32" stroke="#1e1e1e" stroke-width="2" fill="none"></path></g><g transform="translate(144.4827193581458 46.046681194225954) rotate(0 215.52990722656256 69.99999999999999)"><text x="215.5299072265625" y="24.528" font-family="Virgil, Segoe UI Emoji" font-size="28px" fill="#1e1e1e" text-anchor="middle" style="white-space: pre;" direction="ltr" dominant-baseline="alphabetic">Collective Unconscious (God)</text><text x="215.5299072265625" y="59.528" font-family="Virgil, Segoe UI Emoji" font-size="28px" fill="#1e1e1e" text-anchor="middle" style="white-space: pre;" direction="ltr" dominant-baseline="alphabetic">    Arctypes Entities Thought-</text><text x="215.5299072265625" y="94.52799999999999" font-family="Virgil, Segoe UI Emoji" font-size="28px" fill="#1e1e1e" text-anchor="middle" style="white-space: pre;" direction="ltr" dominant-baseline="alphabetic">Forms</text><text x="215.5299072265625" y="129.528" font-family="Virgil, Segoe UI Emoji" font-size="28px" fill="#1e1e1e" text-anchor="middle" style="white-space: pre;" direction="ltr" dominant-baseline="alphabetic">Images Symbolism</text></g><g stroke-linecap="round" transform="translate(190 270) rotate(0 170 170)"><path d="M162.29 0.53 C178.26 -2.82, 197.59 1.11, 213.67 5.24 C229.74 9.36, 244.71 16.44, 258.75 25.28 C272.79 34.11, 286.9 45.77, 297.91 58.26 C308.92 70.75, 318.02 85.03, 324.81 100.23 C331.61 115.43, 336.56 132.61, 338.65 149.45 C340.74 166.3, 340.19 184.85, 337.35 201.29 C334.52 217.74, 329.2 233.3, 321.64 248.13 C314.08 262.95, 303.85 278.31, 291.99 290.27 C280.14 302.22, 265.24 312.28, 250.5 319.88 C235.76 327.48, 220.06 332.57, 203.58 335.85 C187.1 339.12, 168.28 341.26, 151.62 339.52 C134.96 337.77, 118.76 332.2, 103.59 325.39 C88.43 318.57, 73.46 309.28, 60.61 298.65 C47.76 288.02, 35.69 275.55, 26.5 261.62 C17.3 247.68, 9.75 231.25, 5.45 215.05 C1.15 198.84, 0.21 181.07, 0.69 164.38 C1.18 147.68, 3.08 130.64, 8.34 114.88 C13.61 99.11, 22.3 83.36, 32.29 69.79 C42.27 56.23, 54.8 43.52, 68.23 33.48 C81.67 23.45, 94.93 15.14, 112.88 9.6 C130.83 4.06, 163.2 1.23, 175.92 0.26 C188.64 -0.71, 189.28 0.84, 189.21 3.76 M184.95 1.41 C200.7 0.11, 216.84 7.14, 232.21 13.14 C247.58 19.14, 264.17 27.35, 277.17 37.4 C290.18 47.45, 301.19 59.57, 310.23 73.44 C319.27 87.31, 326.54 104.59, 331.4 120.6 C336.26 136.62, 339.44 152.64, 339.39 169.55 C339.33 186.47, 335.74 205.77, 331.07 222.1 C326.4 238.43, 320.8 254.14, 311.35 267.55 C301.9 280.95, 287.74 292.4, 274.38 302.53 C261.02 312.67, 246.64 321.99, 231.19 328.36 C215.75 334.72, 198.54 339.47, 181.71 340.71 C164.88 341.96, 146.47 339.62, 130.22 335.85 C113.98 332.08, 98.3 326.61, 84.27 318.1 C70.23 309.59, 57.19 297.38, 46.03 284.81 C34.87 272.23, 24.48 257.56, 17.29 242.64 C10.09 227.72, 5.63 211.63, 2.87 195.28 C0.12 178.94, -1.72 161.11, 0.76 144.56 C3.24 128.01, 10.42 111.11, 17.75 96 C25.07 80.89, 33.58 66.41, 44.74 53.9 C55.89 41.38, 69.79 29.03, 84.68 20.89 C99.57 12.75, 117.51 8.27, 134.08 5.07 C150.65 1.87, 176.01 1.81, 184.11 1.69 C192.2 1.57, 182.81 1.89, 182.66 4.35" stroke="#1e1e1e" stroke-width="2" fill="none"></path></g><g stroke-linecap="round"><g transform="translate(370 270) rotate(0 0.2083998973666894 167.94461320526898)"><path d="M-0.4 -0.95 C-0.37 55.16, -0.24 280.54, -0.14 336.84 M1.58 1.17 C1.48 56.93, -0.82 279.53, -1.17 335.16" stroke="#1e1e1e" stroke-width="2" fill="none"></path></g></g><mask></mask><g transform="translate(390 370) rotate(0 45.93994903564453 75)"><text x="45.93994903564453" y="17.52" font-family="Virgil, Segoe UI Emoji" font-size="20px" fill="#1e1e1e" text-anchor="middle" style="white-space: pre;" direction="ltr" dominant-baseline="alphabetic">Conscious</text><text x="45.93994903564453" y="42.519999999999996" font-family="Virgil, Segoe UI Emoji" font-size="20px" fill="#1e1e1e" text-anchor="middle" style="white-space: pre;" direction="ltr" dominant-baseline="alphabetic">Mind</text><text x="45.93994903564453" y="67.52" font-family="Virgil, Segoe UI Emoji" font-size="20px" fill="#1e1e1e" text-anchor="middle" style="white-space: pre;" direction="ltr" dominant-baseline="alphabetic"></text><text x="45.93994903564453" y="92.52" font-family="Virgil, Segoe UI Emoji" font-size="20px" fill="#1e1e1e" text-anchor="middle" style="white-space: pre;" direction="ltr" dominant-baseline="alphabetic">WILL</text><text x="45.93994903564453" y="117.52" font-family="Virgil, Segoe UI Emoji" font-size="20px" fill="#1e1e1e" text-anchor="middle" style="white-space: pre;" direction="ltr" dominant-baseline="alphabetic"></text><text x="45.93994903564453" y="142.52" font-family="Virgil, Segoe UI Emoji" font-size="20px" fill="#1e1e1e" text-anchor="middle" style="white-space: pre;" direction="ltr" dominant-baseline="alphabetic">Male (+)</text></g><g transform="translate(213 390) rotate(0 70 50)"><text x="70" y="17.52" font-family="Virgil, Segoe UI Emoji" font-size="20px" fill="#1e1e1e" text-anchor="middle" style="white-space: pre;" direction="ltr" dominant-baseline="alphabetic">Sub-Conscious</text><text x="70" y="42.519999999999996" font-family="Virgil, Segoe UI Emoji" font-size="20px" fill="#1e1e1e" text-anchor="middle" style="white-space: pre;" direction="ltr" dominant-baseline="alphabetic">Mind</text><text x="70" y="67.52" font-family="Virgil, Segoe UI Emoji" font-size="20px" fill="#1e1e1e" text-anchor="middle" style="white-space: pre;" direction="ltr" dominant-baseline="alphabetic"></text><text x="70" y="92.52" font-family="Virgil, Segoe UI Emoji" font-size="20px" fill="#1e1e1e" text-anchor="middle" style="white-space: pre;" direction="ltr" dominant-baseline="alphabetic">Feminine (-)</text></g><g stroke-linecap="round"><g transform="translate(270 290) rotate(0 0.04775550545599572 -40.6367724586278)"><path d="M0.36 -0.13 C0.01 -13.84, -0.87 -67.83, -1.04 -81.14 M-0.9 -1.24 C-0.99 -14.33, 1.27 -67.3, 1.13 -80.21" stroke="#1e1e1e" stroke-width="2" fill="none"></path></g><g transform="translate(270 290) rotate(0 0.04775550545599572 -40.6367724586278)"><path d="M9.22 -56.55 C5.65 -67.46, 0.81 -76, 1.13 -80.21 M9.22 -56.55 C6.53 -63.71, 4.82 -70.48, 1.13 -80.21" stroke="#1e1e1e" stroke-width="2" fill="none"></path></g><g transform="translate(270 290) rotate(0 0.04775550545599572 -40.6367724586278)"><path d="M-7.87 -56.88 C-4.8 -67.71, -2.99 -76.12, 1.13 -80.21 M-7.87 -56.88 C-5.43 -63.84, -2 -70.51, 1.13 -80.21" stroke="#1e1e1e" stroke-width="2" fill="none"></path></g></g><mask></mask><g stroke-linecap="round"><g transform="translate(310 210) rotate(0 -0.4105580045097099 39.02456431431696)"><path d="M-1.1 -0.49 C-1.26 12.49, -0.41 65.36, -0.26 78.89 M0.52 -1.79 C0.12 11.81, -1.08 66.42, -1.34 79.84" stroke="#1e1e1e" stroke-width="2" fill="none"></path></g><g transform="translate(310 210) rotate(0 -0.4105580045097099 39.02456431431696)"><path d="M-9.4 56.17 C-7.11 64.3, -5.27 72.91, -1.34 79.84 M-9.4 56.17 C-6.87 64.79, -4.09 72.19, -1.34 79.84" stroke="#1e1e1e" stroke-width="2" fill="none"></path></g><g transform="translate(310 210) rotate(0 -0.4105580045097099 39.02456431431696)"><path d="M7.7 56.53 C3.85 64.37, -0.43 72.86, -1.34 79.84 M7.7 56.53 C4.11 65.03, 0.78 72.3, -1.34 79.84" stroke="#1e1e1e" stroke-width="2" fill="none"></path></g></g><mask></mask><g stroke-linecap="round" transform="translate(310 670) rotate(0 50 50)"><path d="M58.72 0.94 C66.55 1.58, 74.65 7.02, 81.17 12.32 C87.68 17.62, 94.72 25.02, 97.82 32.74 C100.92 40.46, 101.37 50.57, 99.77 58.64 C98.16 66.71, 93.56 74.85, 88.18 81.16 C82.79 87.46, 75.08 93.49, 67.45 96.48 C59.82 99.47, 50.69 100.29, 42.41 99.1 C34.12 97.91, 24.11 94.68, 17.72 89.37 C11.33 84.06, 6.78 75.13, 4.05 67.23 C1.32 59.34, 0.06 50.14, 1.33 41.97 C2.6 33.81, 6.53 24.78, 11.65 18.22 C16.77 11.66, 23.84 5.32, 32.06 2.62 C40.27 -0.08, 55.98 2.1, 60.96 2.01 C65.94 1.93, 62.35 1.58, 61.94 2.12 M35.23 2.08 C42.39 -1.03, 51.4 -0.41, 59.75 1.54 C68.09 3.48, 78.98 8.33, 85.3 13.76 C91.61 19.19, 95.59 26.4, 97.63 34.14 C99.68 41.88, 99.21 51.87, 97.57 60.2 C95.93 68.53, 93.02 77.65, 87.79 84.13 C82.56 90.61, 74.51 96.81, 66.18 99.1 C57.85 101.38, 46.24 99.83, 37.81 97.83 C29.39 95.82, 21.7 92.77, 15.65 87.07 C9.59 81.38, 3.82 71.66, 1.47 63.65 C-0.88 55.63, -0.61 46.84, 1.55 38.99 C3.72 31.15, 8.67 22.5, 14.46 16.59 C20.24 10.68, 32.55 5.99, 36.24 3.54 C39.92 1.1, 36.43 1.19, 36.56 1.92" stroke="#1e1e1e" stroke-width="2" fill="none"></path></g><g transform="translate(336.9546813874499 707.6446609406726) rotate(0 23.189979553222656 12.5)"><text x="23.189979553222656" y="17.52" font-family="Virgil, Segoe UI Emoji" font-size="20px" fill="#1e1e1e" text-anchor="middle" style="white-space: pre;" direction="ltr" dominant-baseline="alphabetic">Body</text></g><g stroke-linecap="round"><g transform="translate(370 610) rotate(0 0.04742747113107271 30.04145896866919)"><path d="M0.07 0.28 C-0.19 10.09, -0.98 49.31, -0.83 59.46 M-1.36 -0.62 C-1.3 9.29, 1.11 50.7, 1.45 60.71" stroke="#1e1e1e" stroke-width="2" fill="none"></path></g><g transform="translate(370 610) rotate(0 0.04742747113107271 30.04145896866919)"><path d="M-8.2 37.64 C-4.15 44.56, -2.05 55.84, 1.45 60.71 M-8.2 37.64 C-4.9 46.15, -1.05 55.92, 1.45 60.71" stroke="#1e1e1e" stroke-width="2" fill="none"></path></g><g transform="translate(370 610) rotate(0 0.04742747113107271 30.04145896866919)"><path d="M8.88 36.84 C6.79 44.06, 2.74 55.63, 1.45 60.71 M8.88 36.84 C5.4 45.61, 2.47 55.71, 1.45 60.71" stroke="#1e1e1e" stroke-width="2" fill="none"></path></g></g><mask></mask><g stroke-linecap="round"><g transform="translate(398 758) rotate(0 5.839824512277289 6.1090321358176425)"><path d="M0.19 0.31 C2.12 2.43, 10.12 10.21, 12.06 12.23 M-0.38 -0.01 C1.45 1.98, 9.71 9.45, 11.65 11.38" stroke="#1e1e1e" stroke-width="2" fill="none"></path></g></g><mask></mask><g stroke-linecap="round"><g transform="translate(407 695) rotate(0 10.125369641906559 -4.830365491425596)"><path d="M-0.31 0.49 C2.88 -1.29, 16.09 -8.35, 19.56 -10.15 M0.53 0.27 C3.85 -1.2, 17.25 -7.83, 20.56 -9.53" stroke="#1e1e1e" stroke-width="2" fill="none"></path></g></g><mask></mask><g stroke-linecap="round"><g transform="translate(322 684) rotate(0 -6.78845084509345 -6.02256487212145)"><path d="M0.08 0.31 C-2.1 -1.84, -10.92 -10.32, -13.15 -12.35 M-0.54 -0.01 C-2.8 -1.86, -11.45 -9.96, -13.66 -11.83" stroke="#1e1e1e" stroke-width="2" fill="none"></path></g></g><mask></mask><g stroke-linecap="round"><g transform="translate(319 748) rotate(0 -7.204952849633969 7.525849092984572)"><path d="M-0.51 -0.26 C-2.82 2.2, -11.84 12.79, -14.13 15.31 M0.22 0.8 C-2.14 3.33, -12.14 12.08, -14.63 14.5" stroke="#1e1e1e" stroke-width="2" fill="none"></path></g></g><mask></mask><g transform="translate(610 230) rotate(0 270 227.5)"><text x="270" y="24.528" font-family="Virgil, Segoe UI Emoji" font-size="28px" fill="#1e1e1e" text-anchor="middle" style="white-space: pre;" direction="ltr" dominant-baseline="alphabetic">The Conscious (+) Mind United /w The</text><text x="270" y="59.528" font-family="Virgil, Segoe UI Emoji" font-size="28px" fill="#1e1e1e" text-anchor="middle" style="white-space: pre;" direction="ltr" dominant-baseline="alphabetic">Sub-Conscious</text><text x="270" y="94.52799999999999" font-family="Virgil, Segoe UI Emoji" font-size="28px" fill="#1e1e1e" text-anchor="middle" style="white-space: pre;" direction="ltr" dominant-baseline="alphabetic">Mind Manifests the PHYSICAL BODY -</text><text x="270" y="129.528" font-family="Virgil, Segoe UI Emoji" font-size="28px" fill="#1e1e1e" text-anchor="middle" style="white-space: pre;" direction="ltr" dominant-baseline="alphabetic"> the Law of Gender affirms this.</text><text x="270" y="164.528" font-family="Virgil, Segoe UI Emoji" font-size="28px" fill="#1e1e1e" text-anchor="middle" style="white-space: pre;" direction="ltr" dominant-baseline="alphabetic"></text><text x="270" y="199.528" font-family="Virgil, Segoe UI Emoji" font-size="28px" fill="#1e1e1e" text-anchor="middle" style="white-space: pre;" direction="ltr" dominant-baseline="alphabetic">The unification of the male (+) and </text><text x="270" y="234.528" font-family="Virgil, Segoe UI Emoji" font-size="28px" fill="#1e1e1e" text-anchor="middle" style="white-space: pre;" direction="ltr" dominant-baseline="alphabetic">female (-)</text><text x="270" y="269.528" font-family="Virgil, Segoe UI Emoji" font-size="28px" fill="#1e1e1e" text-anchor="middle" style="white-space: pre;" direction="ltr" dominant-baseline="alphabetic">manifests all things, even the physical </text><text x="270" y="304.528" font-family="Virgil, Segoe UI Emoji" font-size="28px" fill="#1e1e1e" text-anchor="middle" style="white-space: pre;" direction="ltr" dominant-baseline="alphabetic">body.</text><text x="270" y="339.528" font-family="Virgil, Segoe UI Emoji" font-size="28px" fill="#1e1e1e" text-anchor="middle" style="white-space: pre;" direction="ltr" dominant-baseline="alphabetic"></text><text x="270" y="374.528" font-family="Virgil, Segoe UI Emoji" font-size="28px" fill="#1e1e1e" text-anchor="middle" style="white-space: pre;" direction="ltr" dominant-baseline="alphabetic">The Sub-Conscious Mind is our LINK </text><text x="270" y="409.528" font-family="Virgil, Segoe UI Emoji" font-size="28px" fill="#1e1e1e" text-anchor="middle" style="white-space: pre;" direction="ltr" dominant-baseline="alphabetic">to the collective unconscious, what </text><text x="270" y="444.528" font-family="Virgil, Segoe UI Emoji" font-size="28px" fill="#1e1e1e" text-anchor="middle" style="white-space: pre;" direction="ltr" dominant-baseline="alphabetic">some have called GOD</text></g></svg>